# xmcd
# 
# Track frame offsets:
#     150
#     4088
#     29379
#     84578
#     137955
#     175609
#     214535
#     289705
#     329972
# 
# Disc length: 4534
# 
# Revision: 0
# Processed by: cddbd v1.5.2PL0 Copyright (c) Steve Scherf et al.
# Submitted via: fre:ac v1.0.31
# 
DISCID=7e11b409
DTITLE=Allman Brothers Band With Eric Clapton - Southern Comfort (MVR) Disc 2
DYEAR=2009
DGENRE=Blues
TTITLE0=Introduction
TTITLE1=Key To The Highway
TTITLE2=Stormy Monday
TTITLE3=Dreams
TTITLE4=Why Does Love Got To Be So Sad
TTITLE5=Little Wing
TTITLE6=In Memory Of Elizabeth Reed
TTITLE7=Layla
TTITLE8=Ending
EXTD=
EXTT0=
EXTT1=
EXTT2=
EXTT3=
EXTT4=
EXTT5=
EXTT6=
EXTT7=
EXTT8=
PLAYORDER=
